<svg width="152" height="74" xmlns="http://www.w3.org/2000/svg" xmlns:xlink="http://www.w3.org/1999/xlink" xml:space="preserve" overflow="hidden"><defs><clipPath id="clip0"><path d="M2209.92 1253.88 2209.92 1256.65C2209.92 1262.52 2205.65 1266.67 2199.95 1266.67 2193.91 1266.67 2189.99 1262.52 2189.99 1256.3L2189.99 1253.88C2186.79 1255.96 2184.65 1256.99 2181.81 1256.99 2176.47 1256.99 2171.85 1252.16 2171.85 1246.97 2171.85 1243.17 2174.69 1239.72 2178.96 1237.99L2180.03 1237.64C2174.69 1234.88 2172.2 1231.77 2172.2 1227.62 2172.2 1222.1 2176.83 1217.6 2182.16 1217.6 2184.3 1217.6 2187.15 1218.64 2189.28 1220.02L2189.99 1220.71 2189.99 1217.95C2189.99 1212.08 2194.26 1207.93 2199.95 1207.93 2206 1207.93 2209.92 1212.08 2209.92 1218.3L2209.92 1220.71C2213.12 1218.64 2215.25 1217.6 2218.1 1217.6 2223.44 1217.6 2228.06 1222.44 2228.06 1227.62 2228.06 1231.43 2225.21 1234.88 2220.95 1236.61L2219.88 1236.95C2225.21 1239.37 2227.71 1242.48 2227.71 1246.28 2227.71 1251.81 2223.08 1256.3 2217.74 1256.3 2215.61 1256.3 2212.41 1255.27 2210.27 1253.88ZM2204.93 1243.86C2209.56 1250.43 2214.19 1253.88 2218.1 1253.88 2221.66 1253.88 2224.5 1250.43 2224.5 1246.97 2224.5 1242.14 2218.45 1239.03 2208.14 1238.34L2208.14 1236.26C2218.45 1235.57 2224.5 1232.46 2224.5 1227.62 2224.5 1223.82 2221.3 1220.71 2218.1 1220.71 2214.19 1220.71 2209.56 1224.17 2204.93 1230.73L2203.51 1229.7C2206 1225.21 2207.07 1221.41 2207.07 1218.3 2207.07 1213.8 2204.58 1211.04 2200.31 1211.04 2196.04 1211.04 2193.19 1213.8 2193.19 1218.3 2193.19 1221.75 2194.26 1225.21 2196.75 1230.04L2194.97 1230.73C2190.35 1224.17 2186.08 1220.71 2182.16 1220.71 2178.61 1220.71 2175.76 1224.17 2175.76 1227.62 2175.76 1232.46 2181.45 1235.57 2192.13 1236.26L2192.13 1237.99C2181.45 1239.03 2175.4 1242.14 2175.4 1246.63 2175.4 1250.43 2178.61 1253.54 2181.81 1253.54 2185.72 1253.54 2190.35 1250.08 2194.97 1243.52L2196.4 1244.21C2193.91 1248.7 2192.84 1252.85 2192.84 1255.96 2192.84 1260.45 2195.33 1263.21 2199.6 1263.21 2203.87 1263.21 2206.36 1260.45 2206.36 1255.96 2206.36 1252.85 2205.29 1249.05 2202.8 1244.21Z" fill-rule="nonzero" clip-rule="nonzero"/></clipPath><clipPath id="clip1"><path d="M2283.28 1253.88 2283.28 1256.65C2283.28 1262.52 2279.07 1266.67 2273.45 1266.67 2267.49 1266.67 2263.63 1262.52 2263.63 1256.3L2263.63 1253.88C2260.47 1255.96 2258.36 1256.99 2255.55 1256.99 2250.29 1256.99 2245.73 1252.16 2245.73 1246.97 2245.73 1243.17 2248.53 1239.72 2252.75 1237.99L2253.8 1237.64C2248.53 1234.88 2246.08 1231.77 2246.08 1227.62 2246.08 1222.1 2250.64 1217.6 2255.91 1217.6 2258.01 1217.6 2260.82 1218.64 2262.93 1220.02L2263.63 1220.71 2263.63 1217.95C2263.63 1212.08 2267.84 1207.93 2273.45 1207.93 2279.42 1207.93 2283.28 1212.08 2283.28 1218.3L2283.28 1220.71C2286.44 1218.64 2288.55 1217.6 2291.35 1217.6 2296.62 1217.6 2301.18 1222.44 2301.18 1227.62 2301.18 1231.43 2298.37 1234.88 2294.16 1236.61L2293.11 1236.95C2298.37 1239.37 2300.83 1242.48 2300.83 1246.28 2300.83 1251.81 2296.27 1256.3 2291 1256.3 2288.9 1256.3 2285.74 1255.27 2283.63 1253.88ZM2278.37 1243.86C2282.93 1250.43 2287.49 1253.88 2291.35 1253.88 2294.86 1253.88 2297.67 1250.43 2297.67 1246.97 2297.67 1242.14 2291.71 1239.03 2281.53 1238.34L2281.53 1236.26C2291.71 1235.57 2297.67 1232.46 2297.67 1227.62 2297.67 1223.82 2294.51 1220.71 2291.35 1220.71 2287.49 1220.71 2282.93 1224.17 2278.37 1230.73L2276.96 1229.7C2279.42 1225.21 2280.47 1221.41 2280.47 1218.3 2280.47 1213.8 2278.02 1211.04 2273.81 1211.04 2269.59 1211.04 2266.79 1213.8 2266.79 1218.3 2266.79 1221.75 2267.84 1225.21 2270.3 1230.04L2268.54 1230.73C2263.98 1224.17 2259.77 1220.71 2255.91 1220.71 2252.4 1220.71 2249.59 1224.17 2249.59 1227.62 2249.59 1232.46 2255.2 1235.57 2265.73 1236.26L2265.73 1237.99C2255.2 1239.03 2249.24 1242.14 2249.24 1246.63 2249.24 1250.43 2252.4 1253.54 2255.55 1253.54 2259.42 1253.54 2263.98 1250.08 2268.54 1243.52L2269.94 1244.21C2267.49 1248.7 2266.44 1252.85 2266.44 1255.96 2266.44 1260.45 2268.89 1263.21 2273.1 1263.21 2277.32 1263.21 2279.77 1260.45 2279.77 1255.96 2279.77 1252.85 2278.72 1249.05 2276.26 1244.21Z" fill-rule="nonzero" clip-rule="nonzero"/></clipPath></defs><g transform="translate(-2158 -1200)"><g><g><g><g><g clip-path="url(#clip0)"><path d="M-3.45512-3.45512 57.7005-3.45512 57.7005 62.1921-3.45512 62.1921Z" stroke="#156082" stroke-width="3.4551" stroke-linecap="butt" stroke-linejoin="miter" stroke-miterlimit="4" stroke-opacity="1" fill="#BE2536" fill-rule="nonzero" fill-opacity="1" transform="matrix(1.02975 0 0 1 2172.2 1207.93)"/></g></g></g></g><g><g><g><g clip-path="url(#clip1)"><path d="M-3.45512-3.45512 57.7005-3.45512 57.7005 62.1921-3.45512 62.1921Z" stroke="#156082" stroke-width="3.4551" stroke-linecap="butt" stroke-linejoin="miter" stroke-miterlimit="4" stroke-opacity="1" fill="#BE2536" fill-rule="nonzero" fill-opacity="1" transform="matrix(1.01583 0 0 1 2246.08 1207.93)"/></g></g></g></g></g></g></svg>