<svg width="225" height="78" xmlns="http://www.w3.org/2000/svg" xmlns:xlink="http://www.w3.org/1999/xlink" xml:space="preserve" overflow="hidden"><defs><clipPath id="clip0"><path d="M2209.92 1346.88 2209.92 1349.65C2209.92 1355.52 2205.65 1359.67 2199.95 1359.67 2193.91 1359.67 2189.99 1355.52 2189.99 1349.3L2189.99 1346.88C2186.79 1348.96 2184.65 1349.99 2181.81 1349.99 2176.47 1349.99 2171.85 1345.16 2171.85 1339.97 2171.85 1336.17 2174.69 1332.72 2178.96 1330.99L2180.03 1330.64C2174.69 1327.88 2172.2 1324.77 2172.2 1320.62 2172.2 1315.1 2176.83 1310.6 2182.16 1310.6 2184.3 1310.6 2187.15 1311.64 2189.28 1313.02L2189.99 1313.71 2189.99 1310.95C2189.99 1305.08 2194.26 1300.93 2199.95 1300.93 2206 1300.93 2209.92 1305.08 2209.92 1311.3L2209.92 1313.71C2213.12 1311.64 2215.25 1310.6 2218.1 1310.6 2223.44 1310.6 2228.06 1315.44 2228.06 1320.62 2228.06 1324.43 2225.21 1327.88 2220.95 1329.61L2219.88 1329.95C2225.21 1332.37 2227.71 1335.48 2227.71 1339.28 2227.71 1344.81 2223.08 1349.3 2217.74 1349.3 2215.61 1349.3 2212.41 1348.27 2210.27 1346.88ZM2204.93 1336.86C2209.56 1343.43 2214.19 1346.88 2218.1 1346.88 2221.66 1346.88 2224.5 1343.43 2224.5 1339.97 2224.5 1335.14 2218.45 1332.03 2208.14 1331.34L2208.14 1329.26C2218.45 1328.57 2224.5 1325.46 2224.5 1320.62 2224.5 1316.82 2221.3 1313.71 2218.1 1313.71 2214.19 1313.71 2209.56 1317.17 2204.93 1323.73L2203.51 1322.7C2206 1318.21 2207.07 1314.41 2207.07 1311.3 2207.07 1306.8 2204.58 1304.04 2200.31 1304.04 2196.04 1304.04 2193.19 1306.8 2193.19 1311.3 2193.19 1314.75 2194.26 1318.21 2196.75 1323.04L2194.97 1323.73C2190.35 1317.17 2186.08 1313.71 2182.16 1313.71 2178.61 1313.71 2175.76 1317.17 2175.76 1320.62 2175.76 1325.46 2181.45 1328.57 2192.13 1329.26L2192.13 1330.99C2181.45 1332.03 2175.4 1335.14 2175.4 1339.63 2175.4 1343.43 2178.61 1346.54 2181.81 1346.54 2185.72 1346.54 2190.35 1343.08 2194.97 1336.52L2196.4 1337.21C2193.91 1341.7 2192.84 1345.85 2192.84 1348.96 2192.84 1353.45 2195.33 1356.21 2199.6 1356.21 2203.87 1356.21 2206.36 1353.45 2206.36 1348.96 2206.36 1345.85 2205.29 1342.05 2202.8 1337.21Z" fill-rule="nonzero" clip-rule="nonzero"/></clipPath><clipPath id="clip1"><path d="M2284.28 1346.88 2284.28 1349.65C2284.28 1355.52 2280.07 1359.67 2274.45 1359.67 2268.49 1359.67 2264.63 1355.52 2264.63 1349.3L2264.63 1346.88C2261.47 1348.96 2259.36 1349.99 2256.55 1349.99 2251.29 1349.99 2246.73 1345.16 2246.73 1339.97 2246.73 1336.17 2249.53 1332.72 2253.75 1330.99L2254.8 1330.64C2249.53 1327.88 2247.08 1324.77 2247.08 1320.62 2247.08 1315.1 2251.64 1310.6 2256.91 1310.6 2259.01 1310.6 2261.82 1311.64 2263.93 1313.02L2264.63 1313.71 2264.63 1310.95C2264.63 1305.08 2268.84 1300.93 2274.45 1300.93 2280.42 1300.93 2284.28 1305.08 2284.28 1311.3L2284.28 1313.71C2287.44 1311.64 2289.55 1310.6 2292.35 1310.6 2297.62 1310.6 2302.18 1315.44 2302.18 1320.62 2302.18 1324.43 2299.37 1327.88 2295.16 1329.61L2294.11 1329.95C2299.37 1332.37 2301.83 1335.48 2301.83 1339.28 2301.83 1344.81 2297.27 1349.3 2292 1349.3 2289.9 1349.3 2286.74 1348.27 2284.63 1346.88ZM2279.37 1336.86C2283.93 1343.43 2288.49 1346.88 2292.35 1346.88 2295.86 1346.88 2298.67 1343.43 2298.67 1339.97 2298.67 1335.14 2292.71 1332.03 2282.53 1331.34L2282.53 1329.26C2292.71 1328.57 2298.67 1325.46 2298.67 1320.62 2298.67 1316.82 2295.51 1313.71 2292.35 1313.71 2288.49 1313.71 2283.93 1317.17 2279.37 1323.73L2277.96 1322.7C2280.42 1318.21 2281.47 1314.41 2281.47 1311.3 2281.47 1306.8 2279.02 1304.04 2274.81 1304.04 2270.59 1304.04 2267.79 1306.8 2267.79 1311.3 2267.79 1314.75 2268.84 1318.21 2271.3 1323.04L2269.54 1323.73C2264.98 1317.17 2260.77 1313.71 2256.91 1313.71 2253.4 1313.71 2250.59 1317.17 2250.59 1320.62 2250.59 1325.46 2256.2 1328.57 2266.73 1329.26L2266.73 1330.99C2256.2 1332.03 2250.24 1335.14 2250.24 1339.63 2250.24 1343.43 2253.4 1346.54 2256.55 1346.54 2260.42 1346.54 2264.98 1343.08 2269.54 1336.52L2270.94 1337.21C2268.49 1341.7 2267.44 1345.85 2267.44 1348.96 2267.44 1353.45 2269.89 1356.21 2274.1 1356.21 2278.32 1356.21 2280.77 1353.45 2280.77 1348.96 2280.77 1345.85 2279.72 1342.05 2277.26 1337.21Z" fill-rule="nonzero" clip-rule="nonzero"/></clipPath><clipPath id="clip2"><path d="M2356.28 1346.88 2356.28 1349.65C2356.28 1355.52 2352.07 1359.67 2346.45 1359.67 2340.49 1359.67 2336.63 1355.52 2336.63 1349.3L2336.63 1346.88C2333.47 1348.96 2331.36 1349.99 2328.55 1349.99 2323.29 1349.99 2318.73 1345.16 2318.73 1339.97 2318.73 1336.17 2321.53 1332.72 2325.75 1330.99L2326.8 1330.64C2321.53 1327.88 2319.08 1324.77 2319.08 1320.62 2319.08 1315.1 2323.64 1310.6 2328.91 1310.6 2331.01 1310.6 2333.82 1311.64 2335.92 1313.02L2336.63 1313.71 2336.63 1310.95C2336.63 1305.08 2340.84 1300.93 2346.45 1300.93 2352.42 1300.93 2356.28 1305.08 2356.28 1311.3L2356.28 1313.71C2359.44 1311.64 2361.55 1310.6 2364.35 1310.6 2369.62 1310.6 2374.18 1315.44 2374.18 1320.62 2374.18 1324.43 2371.37 1327.88 2367.16 1329.61L2366.11 1329.95C2371.37 1332.37 2373.83 1335.48 2373.83 1339.28 2373.83 1344.81 2369.27 1349.3 2364 1349.3 2361.9 1349.3 2358.74 1348.27 2356.63 1346.88ZM2351.37 1336.86C2355.93 1343.43 2360.49 1346.88 2364.35 1346.88 2367.86 1346.88 2370.67 1343.43 2370.67 1339.97 2370.67 1335.14 2364.71 1332.03 2354.53 1331.34L2354.53 1329.26C2364.71 1328.57 2370.67 1325.46 2370.67 1320.62 2370.67 1316.82 2367.51 1313.71 2364.35 1313.71 2360.49 1313.71 2355.93 1317.17 2351.37 1323.73L2349.96 1322.7C2352.42 1318.21 2353.47 1314.41 2353.47 1311.3 2353.47 1306.8 2351.02 1304.04 2346.81 1304.04 2342.59 1304.04 2339.79 1306.8 2339.79 1311.3 2339.79 1314.75 2340.84 1318.21 2343.3 1323.04L2341.54 1323.73C2336.98 1317.17 2332.77 1313.71 2328.91 1313.71 2325.4 1313.71 2322.59 1317.17 2322.59 1320.62 2322.59 1325.46 2328.2 1328.57 2338.73 1329.26L2338.73 1330.99C2328.2 1332.03 2322.24 1335.14 2322.24 1339.63 2322.24 1343.43 2325.4 1346.54 2328.55 1346.54 2332.42 1346.54 2336.98 1343.08 2341.54 1336.52L2342.94 1337.21C2340.49 1341.7 2339.43 1345.85 2339.43 1348.96 2339.43 1353.45 2341.89 1356.21 2346.1 1356.21 2350.32 1356.21 2352.77 1353.45 2352.77 1348.96 2352.77 1345.85 2351.72 1342.05 2349.26 1337.21Z" fill-rule="nonzero" clip-rule="nonzero"/></clipPath></defs><g transform="translate(-2158 -1292)"><g><g><g><g><g clip-path="url(#clip0)"><path d="M-3.45513-3.45513 57.7007-3.45513 57.7007 62.1924-3.45513 62.1924Z" stroke="#156082" stroke-width="3.45512" stroke-linecap="butt" stroke-linejoin="miter" stroke-miterlimit="4" stroke-opacity="1" fill="#BE2536" fill-rule="nonzero" fill-opacity="1" transform="matrix(1.02974 0 0 1 2172.2 1300.93)"/></g></g></g></g><g><g><g><g clip-path="url(#clip1)"><path d="M-3.45513-3.45513 57.7007-3.45513 57.7007 62.1924-3.45513 62.1924Z" stroke="#156082" stroke-width="3.45512" stroke-linecap="butt" stroke-linejoin="miter" stroke-miterlimit="4" stroke-opacity="1" fill="#BE2536" fill-rule="nonzero" fill-opacity="1" transform="matrix(1.01582 0 0 1 2247.08 1300.93)"/></g></g></g></g><g><g><g><g clip-path="url(#clip2)"><path d="M-3.45513-3.45513 57.7007-3.45513 57.7007 62.1924-3.45513 62.1924Z" stroke="#156082" stroke-width="3.45512" stroke-linecap="butt" stroke-linejoin="miter" stroke-miterlimit="4" stroke-opacity="1" fill="#BE2536" fill-rule="nonzero" fill-opacity="1" transform="matrix(1.01582 0 0 1 2319.08 1300.93)"/></g></g></g></g></g></g></svg>