<?xml version="1.0" encoding="UTF-8" standalone="no"?>
<svg
   version="1.1"
   id="Layer_1"
   x="0"
   y="0"
   xml:space="preserve"
   width="22"
   height="22"
   sodipodi:docname="filter_distinction.svg"
   inkscape:version="1.2.2 (b0a8486, 2022-12-01)"
   xmlns:inkscape="http://www.inkscape.org/namespaces/inkscape"
   xmlns:sodipodi="http://sodipodi.sourceforge.net/DTD/sodipodi-0.dtd"
   xmlns:xlink="http://www.w3.org/1999/xlink"
   xmlns="http://www.w3.org/2000/svg"
   xmlns:svg="http://www.w3.org/2000/svg"><defs
     id="defs192" /><sodipodi:namedview
     id="namedview190"
     pagecolor="#ffffff"
     bordercolor="#666666"
     borderopacity="1.0"
     inkscape:showpageshadow="2"
     inkscape:pageopacity="0.0"
     inkscape:pagecheckerboard="0"
     inkscape:deskcolor="#d1d1d1"
     showgrid="false"
     inkscape:zoom="17.738956"
     inkscape:cx="7.9767941"
     inkscape:cy="14.62882"
     inkscape:window-width="1920"
     inkscape:window-height="981"
     inkscape:window-x="0"
     inkscape:window-y="25"
     inkscape:window-maximized="1"
     inkscape:current-layer="Layer_1" /><style
     type="text/css"
     id="style182">.st0{clip-path:url(#SVGID_00000115517271902080396900000005844976581431208336_);fill:#be2536}</style><g
     id="g192"
     transform="matrix(1.0577472,0,0,1.0412715,2.7358183,2.0885774)"><defs
       id="defs185"><path
         id="SVGID_1_"
         d="m 10.6,13.3 v 0.8 C 10.6,15.8 9.4,17 7.8,17 6.1,17 5,15.8 5,14 v -0.7 c -0.9,0.6 -1.5,0.9 -2.3,0.9 -1.5,0 -2.8,-1.4 -2.8,-2.9 0,-1.1 0.8,-2.1 2,-2.6 L 2.2,8.6 C 0.7,7.8 0,6.9 0,5.7 0,4.1 1.3,2.8 2.8,2.8 c 0.6,0 1.4,0.3 2,0.7 L 5,3.7 V 2.9 C 5,1.2 6.2,0 7.8,0 c 1.7,0 2.8,1.2 2.8,3 v 0.7 c 0.9,-0.6 1.5,-0.9 2.3,-0.9 1.5,0 2.8,1.4 2.8,2.9 0,1.1 -0.8,2.1 -2,2.6 l -0.3,0.1 c 1.5,0.7 2.2,1.6 2.2,2.7 0,1.6 -1.3,2.9 -2.8,2.9 -0.6,0 -1.5,-0.3 -2.1,-0.7 z M 9.2,10.4 c 1.3,1.9 2.6,2.9 3.7,2.9 1,0 1.8,-1 1.8,-2 C 14.7,9.9 13,9 10.1,8.8 V 8.2 C 13,8 14.7,7.1 14.7,5.7 c 0,-1.1 -0.9,-2 -1.8,-2 -1.1,0 -2.4,1 -3.7,2.9 L 8.8,6.3 C 9.5,5 9.8,3.9 9.8,3 9.8,1.7 9.1,0.9 7.9,0.9 c -1.2,0 -2,0.8 -2,2.1 0,1 0.3,2 1,3.4 L 6.4,6.6 C 5.1,4.7 3.9,3.7 2.8,3.7 1.8,3.7 1,4.7 1,5.7 1,7.1 2.6,8 5.6,8.2 v 0.5 c -3,0.3 -4.7,1.2 -4.7,2.5 0,1.1 0.9,2 1.8,2 1.1,0 2.4,-1 3.7,-2.9 l 0.4,0.2 c -0.7,1.3 -1,2.5 -1,3.4 0,1.3 0.7,2.1 1.9,2.1 1.2,0 1.9,-0.8 1.9,-2.1 0,-0.9 -0.3,-2 -1,-3.4 z" /></defs><clipPath
       id="SVGID_00000067914511234887543590000002821507707302186166_"><use
         xlink:href="#SVGID_1_"
         style="overflow:visible"
         id="use187" /></clipPath><path
       style="fill:#be2536"
       clip-path="url(#SVGID_00000067914511234887543590000002821507707302186166_)"
       id="rect190"
       d="M -1,-1 H 16.7 V 18 H -1 Z" /></g></svg>
