<svg width="363" height="397" xmlns="http://www.w3.org/2000/svg" xmlns:xlink="http://www.w3.org/1999/xlink" xml:space="preserve" overflow="hidden"><defs><clipPath id="clip0"><rect x="458" y="161" width="363" height="397"/></clipPath><clipPath id="clip1"><rect x="458" y="161" width="363" height="397"/></clipPath><clipPath id="clip2"><rect x="459" y="162" width="362" height="396"/></clipPath><clipPath id="clip3"><rect x="459" y="162" width="362" height="396"/></clipPath><clipPath id="clip4"><rect x="459" y="162" width="362" height="396"/></clipPath><clipPath id="clip5"><rect x="459" y="162" width="362" height="396"/></clipPath><clipPath id="clip6"><rect x="459" y="162" width="362" height="396"/></clipPath><clipPath id="clip7"><rect x="459" y="163" width="362" height="395"/></clipPath><clipPath id="clip8"><rect x="459" y="163" width="362" height="395"/></clipPath><clipPath id="clip9"><rect x="459" y="163" width="816" height="395"/></clipPath></defs><g clip-path="url(#clip0)" transform="translate(-458 -161)"><g clip-path="url(#clip1)"><g clip-path="url(#clip2)"><g clip-path="url(#clip3)"><g clip-path="url(#clip4)"><g clip-path="url(#clip5)"><g clip-path="url(#clip6)"><g clip-path="url(#clip7)"><g clip-path="url(#clip8)"><g clip-path="url(#clip9)"><path d="M246.263 27.231 246.263 7.89305C246.263-11.5765 240.08-27.6257 227.714-40.2546 215.349-52.8834 199.694-59.1979 180.751-59.1979 160.229-59.1979 144.18-52.7519 132.603-39.8599 121.027-26.9679 115.239-9.73476 115.239 11.8396L115.239 17.7594C115.239 18.8118 115.37 19.7326 115.633 20.5219L116.028 27.231C96.5583 13.2866 79.062 6.31444 63.5391 6.31444 51.4364 6.31444 39.8599 10.3925 28.8096 18.5487 18.2856 26.1786 10.5241 36.1765 5.52514 48.5423 1.84171 57.2246 0 65.907 0 74.5893 0 101.163 15.2599 121.421 45.7797 135.366L51.6995 138.128C17.2332 153.914 0 175.226 0 202.062 0 220.216 6.31444 236.134 18.9433 249.815 31.5722 263.496 46.569 270.337 63.9337 270.337 79.7198 270.337 95.3744 264.68 110.897 253.367L116.028 249.42C115.502 254.682 115.239 260.997 115.239 268.364 115.239 288.096 121.421 304.211 133.787 316.709 146.153 329.206 161.808 335.455 180.751 335.455 201.536 335.455 217.651 328.943 229.096 315.919 240.541 302.896 246.263 285.86 246.263 264.812L246.263 249.42C265.733 263.365 283.097 270.337 298.357 270.337 315.459 270.337 330.258 263.431 342.756 249.618 355.253 235.805 361.502 219.953 361.502 202.062 361.502 175.226 346.242 154.835 315.722 140.891L309.802 138.128C344.269 122.342 361.502 101.163 361.502 74.5893 361.502 57.4877 355.319 41.8332 342.953 27.6257 330.587 13.4182 315.656 6.31444 298.16 6.31444 280.664 6.31444 265.206 11.8396 251.788 22.8898ZM213.112 93.9273C243.632 49.4631 271.916 27.231 297.963 27.231 308.75 27.231 318.55 32.0984 327.364 41.8332 336.178 51.5679 340.585 62.4866 340.585 74.5893 340.585 107.214 305.329 126.552 234.818 132.603L234.818 144.048C269.811 146.942 296.187 153.257 313.946 162.991 331.705 172.726 340.585 185.75 340.585 202.062 340.585 213.902 336.31 224.755 327.759 234.621 319.208 244.487 309.276 249.42 297.963 249.42 271.389 249.42 243.106 227.057 213.112 182.329L202.851 188.249C217.848 218.769 225.347 244.553 225.347 265.601 225.347 298.226 210.481 314.538 180.751 314.538 166.543 314.538 155.493 310.197 147.6 301.514 139.97 292.306 136.155 280.729 136.155 266.785 136.155 245.737 143.654 219.558 158.65 188.249L148.389 182.329C118.396 227.057 90.1123 249.42 63.5391 249.42 52.7519 249.42 42.9513 244.75 34.1374 235.41 25.3235 226.07 20.9166 214.954 20.9166 202.062 20.9166 169.437 56.0407 150.1 126.289 144.048L126.289 132.603C56.0407 126.815 20.9166 107.477 20.9166 74.5893 20.9166 63.0128 25.1262 52.2257 33.5455 42.2278 41.9647 32.23 51.9626 27.231 63.5391 27.231 89.5861 27.231 117.87 49.4631 148.389 93.9273L158.65 88.4022C143.654 57.6193 136.155 31.3091 136.155 9.47166 136.155-4.47273 139.97-16.0492 147.6-25.2578 155.493-33.9401 166.543-38.2813 180.751-38.2813 210.481-38.2813 225.347-22.1005 225.347 10.261 225.347 31.5722 217.848 57.6193 202.851 88.4022Z" fill="#FFFFFF" fill-rule="nonzero" fill-opacity="1" transform="matrix(1 0 0 1.00088 459 222.25)"/><path d="M246.263 27.231 246.263 7.89305C246.263-11.5765 240.08-27.6257 227.714-40.2546 215.349-52.8834 199.694-59.1979 180.751-59.1979 160.229-59.1979 144.18-52.7519 132.603-39.8599 121.027-26.9679 115.239-9.73476 115.239 11.8396L115.239 17.7594C115.239 18.8118 115.37 19.7326 115.633 20.5219L116.028 27.231C96.5583 13.2866 79.062 6.31444 63.5391 6.31444 51.4364 6.31444 39.8599 10.3925 28.8096 18.5487 18.2856 26.1786 10.5241 36.1765 5.52514 48.5423 1.84171 57.2246 0 65.907 0 74.5893 0 101.163 15.2599 121.421 45.7797 135.366L51.6995 138.128C17.2332 153.914 0 175.226 0 202.062 0 220.216 6.31444 236.134 18.9433 249.815 31.5722 263.496 46.569 270.337 63.9337 270.337 79.7198 270.337 95.3744 264.68 110.897 253.367L116.028 249.42C115.502 254.682 115.239 260.997 115.239 268.364 115.239 288.096 121.421 304.211 133.787 316.709 146.153 329.206 161.808 335.455 180.751 335.455 201.536 335.455 217.651 328.943 229.096 315.919 240.541 302.896 246.263 285.86 246.263 264.812L246.263 249.42C265.733 263.365 283.097 270.337 298.357 270.337 315.459 270.337 330.258 263.431 342.756 249.618 355.253 235.805 361.502 219.953 361.502 202.062 361.502 175.226 346.242 154.835 315.722 140.891L309.802 138.128C344.269 122.342 361.502 101.163 361.502 74.5893 361.502 57.4877 355.319 41.8332 342.953 27.6257 330.587 13.4182 315.656 6.31444 298.16 6.31444 280.664 6.31444 265.206 11.8396 251.788 22.8898ZM213.112 93.9273C243.632 49.4631 271.916 27.231 297.963 27.231 308.75 27.231 318.55 32.0984 327.364 41.8332 336.178 51.5679 340.585 62.4866 340.585 74.5893 340.585 107.214 305.329 126.552 234.818 132.603L234.818 144.048C269.811 146.942 296.187 153.257 313.946 162.991 331.705 172.726 340.585 185.75 340.585 202.062 340.585 213.902 336.31 224.755 327.759 234.621 319.208 244.487 309.276 249.42 297.963 249.42 271.389 249.42 243.106 227.057 213.112 182.329L202.851 188.249C217.848 218.769 225.347 244.553 225.347 265.601 225.347 298.226 210.481 314.538 180.751 314.538 166.543 314.538 155.493 310.197 147.6 301.514 139.97 292.306 136.155 280.729 136.155 266.785 136.155 245.737 143.654 219.558 158.65 188.249L148.389 182.329C118.396 227.057 90.1123 249.42 63.5391 249.42 52.7519 249.42 42.9513 244.75 34.1374 235.41 25.3235 226.07 20.9166 214.954 20.9166 202.062 20.9166 169.437 56.0407 150.1 126.289 144.048L126.289 132.603C56.0407 126.815 20.9166 107.477 20.9166 74.5893 20.9166 63.0128 25.1262 52.2257 33.5455 42.2278 41.9647 32.23 51.9626 27.231 63.5391 27.231 89.5861 27.231 117.87 49.4631 148.389 93.9273L158.65 88.4022C143.654 57.6193 136.155 31.3091 136.155 9.47166 136.155-4.47273 139.97-16.0492 147.6-25.2578 155.493-33.9401 166.543-38.2813 180.751-38.2813 210.481-38.2813 225.347-22.1005 225.347 10.261 225.347 31.5722 217.848 57.6193 202.851 88.4022Z" fill="#FFFFFF" fill-rule="nonzero" fill-opacity="1" transform="matrix(1 0 0 1.00088 912.85 222.25)"/></g></g></g></g></g></g></g></g></g></g></svg>